<svg xmlns="http://www.w3.org/2000/svg" viewBox="0 8.84000015258789 263.8900146484375 37.029998779296875" data-asc="0.9052734375" width="263.8900146484375" height="37.029998779296875"><defs/><g fill="#000000"><g transform="translate(0, 0)"><path d="M0 45.26L0 9.47L13.43 9.47Q17.53 9.47 20.01 10.56Q22.49 11.65 23.89 13.90Q25.29 16.16 25.29 18.63Q25.29 20.92 24.05 22.95Q22.80 24.98 20.29 26.22Q23.54 27.17 25.28 29.47Q27.03 31.76 27.03 34.89Q27.03 37.40 25.96 39.56Q24.90 41.72 23.34 42.90Q21.78 44.07 19.42 44.67Q17.07 45.26 13.65 45.26L0 45.26M4.74 24.51L12.48 24.51Q15.63 24.51 16.99 24.10Q18.80 23.56 19.71 22.31Q20.63 21.07 20.63 19.19Q20.63 17.41 19.78 16.05Q18.92 14.70 17.33 14.20Q15.75 13.70 11.89 13.70L4.74 13.70L4.74 24.51M4.74 41.04L13.65 41.04Q15.94 41.04 16.87 40.87Q18.51 40.58 19.60 39.89Q20.70 39.21 21.41 37.90Q22.12 36.60 22.12 34.89Q22.12 32.89 21.09 31.41Q20.07 29.93 18.25 29.33Q16.43 28.74 13.01 28.74L4.74 28.74L4.74 41.04ZM33.64 45.26L33.64 9.47L59.52 9.47L59.52 13.70L38.38 13.70L38.38 24.66L58.18 24.66L58.18 28.86L38.38 28.86L38.38 41.04L60.35 41.04L60.35 45.26L33.64 45.26ZM89.45 39.48L89.45 29.66L79.71 29.66L79.71 25.56L89.45 25.56L89.45 15.82L93.60 15.82L93.60 25.56L103.34 25.56L103.34 29.66L93.60 29.66L93.60 39.48L89.45 39.48ZM124.12 45.26L124.12 9.47L148.27 9.47L148.27 13.70L128.86 13.70L128.86 24.78L145.65 24.78L145.65 29.00L128.86 29.00L128.86 45.26L124.12 45.26ZM154.22 45.26L154.22 9.47L158.96 9.47L158.96 41.04L176.59 41.04L176.59 45.26L154.22 45.26ZM180.79 27.83Q180.79 18.92 185.57 13.88Q190.36 8.84 197.92 8.84Q202.88 8.84 206.86 11.21Q210.84 13.57 212.93 17.81Q215.01 22.05 215.01 27.42Q215.01 32.86 212.82 37.16Q210.62 41.46 206.59 43.66Q202.56 45.87 197.90 45.87Q192.85 45.87 188.87 43.43Q184.89 40.99 182.84 36.77Q180.79 32.54 180.79 27.83M185.67 27.91Q185.67 34.38 189.15 38.10Q192.63 41.82 197.88 41.82Q203.22 41.82 206.68 38.06Q210.13 34.30 210.13 27.39Q210.13 23.02 208.65 19.76Q207.18 16.50 204.33 14.71Q201.49 12.92 197.95 12.92Q192.92 12.92 189.29 16.37Q185.67 19.82 185.67 27.91ZM227.37 45.26L217.87 9.47L222.73 9.47L228.17 32.93Q229.05 36.62 229.69 40.26Q231.05 34.52 231.30 33.64L238.11 9.47L243.82 9.47L248.95 27.59Q250.88 34.33 251.73 40.26Q252.42 36.87 253.52 32.47L259.13 9.47L263.89 9.47L254.08 45.26L249.51 45.26L241.97 17.99Q241.02 14.58 240.84 13.79Q240.28 16.26 239.79 17.99L232.20 45.26L227.37 45.26Z"/></g></g></svg>